<svg xmlns="http://www.w3.org/2000/svg" width="726" height="425"><defs><style>@import url('https://fonts.googleapis.com/css2?family=Roboto+Mono&amp;display=swap')</style><style>text,text&gt;tspan{font-family:'Roboto Mono';font-size:16px} rect{stroke:black} line,path{fill:none;stroke:black}</style><marker id="arrowMarker" orient="auto" refX="6" refY="5" markerHeight="10" markerWidth="5"><path style="fill:black;stroke:black" d="M 0 0 L 5 5 L 0 10 Z"></path></marker><marker id="inheritMarker" orient="auto" refX="16" refY="7.5" markerHeight="15" markerWidth="15"><path style="fill:white;stroke:black" d="M 0 0 L 15 7.5 L 0 15 Z"></path></marker><marker id="aggregationMarker" orient="auto" refX="21" refY="7.5" markerHeight="15" markerWidth="20"><path style="fill:white;stroke:black" d="M 0 7.5 L 10 0 L 20 7.5 L 10 15 Z"></path></marker><marker id="compositionMarker" orient="auto" refX="21" refY="7.5" markerHeight="15" markerWidth="20"><path style="fill:black;stroke:black" d="M 0 7.5 L 10 0 L 20 7.5 L 10 15 Z"></path></marker></defs><g transform="translate(5,29)"><rect height="90" width="200" style="fill:white"></rect><rect height="21" width="200" style="fill:lightgrey"></rect><text x="76.25" y="16">livre</text><text><tspan x="2.5" y="37" style="text-decoration:underline">isbn</tspan><tspan x="166.5" y="37">INT</tspan><tspan x="2.5" y="53">titre</tspan><tspan x="90.5" y="53">VARCHAR(50)</tspan><tspan x="2.5" y="69">annee</tspan><tspan x="166.5" y="69">INT</tspan><tspan x="2.5" y="85">editeur</tspan><tspan x="90.5" y="85">VARCHAR(50)</tspan></text></g><g transform="translate(476,5)"><rect height="138" width="200" style="fill:white"></rect><rect height="21" width="200" style="fill:lightgrey"></rect><text x="71.5" y="16">usager</text><text><tspan x="2.5" y="37" style="text-decoration:underline">code_barre</tspan><tspan x="166.5" y="37">INT</tspan><tspan x="2.5" y="53">nom</tspan><tspan x="90.5" y="53">VARCHAR(50)</tspan><tspan x="2.5" y="69">prenom</tspan><tspan x="90.5" y="69">VARCHAR(50)</tspan><tspan x="2.5" y="85">adresse</tspan><tspan x="90.5" y="85">VARCHAR(50)</tspan><tspan x="2.5" y="101">cp</tspan><tspan x="90.5" y="101">VARCHAR(50)</tspan><tspan x="2.5" y="117">ville</tspan><tspan x="90.5" y="117">VARCHAR(50)</tspan><tspan x="2.5" y="133">email</tspan><tspan x="90.5" y="133">VARCHAR(50)</tspan></text></g><g transform="translate(10,301)"><rect height="74" width="190" style="fill:white"></rect><rect height="21" width="190.5" style="fill:lightgrey"></rect><text x="66.75" y="16">auteur</text><text><tspan x="2.5" y="37" style="text-decoration:underline">a_id</tspan><tspan x="157" y="37">INT</tspan><tspan x="2.5" y="53">nom</tspan><tspan x="81" y="53">VARCHAR(50)</tspan><tspan x="2.5" y="69">prenom</tspan><tspan x="81" y="69">VARCHAR(50)</tspan></text></g><g transform="translate(24,193)"><rect height="58" width="162" style="fill:white"></rect><rect height="21" width="162" style="fill:lightgrey"></rect><text x="38.25" y="16">auteur_de</text><text><tspan x="2.5" y="37" style="text-decoration:underline">isbn_livre</tspan><tspan x="128.5" y="37">INT</tspan><tspan x="2.5" y="53" style="text-decoration:underline">a_id_auteur</tspan><tspan x="128.5" y="53">INT</tspan></text></g><g transform="translate(255,37)"><rect height="74" width="171" style="fill:white"></rect><rect height="21" width="171.5" style="fill:lightgrey"></rect><text x="52.5" y="16">emprunt</text><text><tspan x="2.5" y="37" style="text-decoration:underline">isbn_livre</tspan><tspan x="138" y="37">INT</tspan><tspan x="2.5" y="53" style="text-decoration:underline">code_barre</tspan><tspan x="138" y="53">INT</tspan><tspan x="2.5" y="69">date</tspan><tspan x="62" y="69">VARCHAR(50)</tspan></text></g><g><path d="M 186 225 L 215 225 L 215 61 L 205 61" marker-end="url(#arrowMarker)"></path></g><g><path d="M 186 241 L 210 241 L 210 333 L 200 333" marker-end="url(#arrowMarker)"></path></g><g><path d="M 255 69 L 245 69 L 215 61 L 205 61" marker-end="url(#arrowMarker)"></path></g><g><path d="M 426 85 L 436 85 L 466 37 L 476 37" marker-end="url(#arrowMarker)"></path></g></svg>